<svg width="330" height="330" viewBox="0 0 330 330" fill="none" xmlns="http://www.w3.org/2000/svg">
<rect x="1.83333" y="1.83333" width="326.333" height="326.333" rx="25.1667" fill="white" stroke="#646464" stroke-width="3.66667"/>
<path d="M259 165C273.912 165 286.3 177.235 283 191.777C279.742 206.136 273.872 219.856 265.608 232.224C252.312 252.122 233.415 267.631 211.305 276.79C189.195 285.948 164.866 288.344 141.394 283.675C117.922 279.006 96.3623 267.482 79.4402 250.56C62.518 233.638 50.9939 212.078 46.3251 188.606C41.6563 165.134 44.0525 140.805 53.2107 118.695C62.3689 96.5855 77.8778 77.6879 97.7762 64.3923C110.145 56.1279 123.864 50.2586 138.223 47.0001C152.765 43.7001 165 56.0884 165 71.0001L165 138C165 152.912 177.088 165 192 165H259Z" fill="#C6E6F5"/>
<path d="M277.128 149.766C191.18 82.0633 102.309 113.634 51.8387 150.203C39.0145 159.495 39.663 178.138 52.8771 186.867C138.557 243.463 225.523 217.236 275.393 186.189C288.714 177.896 289.454 159.476 277.128 149.766Z" stroke="#646464" stroke-width="3.66667"/>
<circle cx="165" cy="165.451" r="44" fill="#62DCE4"/>
<circle cx="190.667" cy="143.451" r="11" fill="white"/>
</svg>
